<svg width="30" height="30" viewBox="0 0 30 30" fill="none" xmlns="http://www.w3.org/2000/svg">
<path d="M27.5 7.14922L21.75 2.32422L20.1375 4.23672L25.8875 9.06172L27.5 7.14922ZM9.85 4.23672L8.25 2.32422L2.5 7.13672L4.1125 9.04922L9.85 4.23672ZM15.625 9.99922H13.75V17.4992L19.6875 21.0617L20.625 19.5242L15.625 16.5617V9.99922ZM15 4.99922C8.7875 4.99922 3.75 10.0367 3.75 16.2492C3.75 22.4617 8.775 27.4992 15 27.4992C21.2125 27.4992 26.25 22.4617 26.25 16.2492C26.25 10.0367 21.2125 4.99922 15 4.99922ZM15 24.9992C10.1625 24.9992 6.25 21.0867 6.25 16.2492C6.25 11.4117 10.1625 7.49922 15 7.49922C19.8375 7.49922 23.75 11.4117 23.75 16.2492C23.75 21.0867 19.8375 24.9992 15 24.9992Z" fill="#696984"/>
</svg>
