<svg width="40" height="40" viewBox="0 0 40 40" fill="none" xmlns="http://www.w3.org/2000/svg">
<g clip-path="url(#clip0_3696_12409)">
<path d="M9.99989 0C9.21088 0 8.57129 0.639592 8.57129 1.4286V4.28571H11.4284V1.4286C11.4284 0.639592 10.7888 0 9.99989 0Z" fill="#F5F5FC"/>
<path d="M29.9999 0C29.2109 0 28.5713 0.639592 28.5713 1.4286V4.28571H31.4284V1.4286C31.4285 0.639592 30.7889 0 29.9999 0Z" fill="#F5F5FC"/>
<path d="M35.7143 4.28516H31.4286V9.99947C31.4286 10.7885 30.789 11.4281 30 11.4281C29.211 11.4281 28.5714 10.7885 28.5714 9.99947V4.28516H11.4285V9.99947C11.4285 10.7885 10.7889 11.4281 9.99994 11.4281C9.21093 11.4281 8.57134 10.7885 8.57134 9.99947V4.28516H4.28571C1.91878 4.28516 0 6.20393 0 8.57087V35.7137C0 38.0807 1.91878 39.9994 4.28571 39.9994H35.7143C38.0812 39.9994 40 38.0807 40 35.7137V8.57087C40 6.20393 38.0812 4.28516 35.7143 4.28516ZM37.1428 35.7137C37.1428 36.5027 36.5032 37.1423 35.7142 37.1423H4.28571C3.49671 37.1423 2.85711 36.5027 2.85711 35.7137V17.1423H37.1428V35.7137Z" fill="#F5F5FC"/>
<path d="M11.4283 20H8.57118C7.78217 20 7.14258 20.6396 7.14258 21.4286C7.14258 22.2176 7.78217 22.8572 8.57118 22.8572H11.4283C12.2173 22.8572 12.8569 22.2176 12.8569 21.4286C12.8569 20.6396 12.2173 20 11.4283 20Z" fill="#F5F5FC"/>
<path d="M21.4283 20H18.5712C17.7822 20 17.1426 20.6396 17.1426 21.4286C17.1426 22.2176 17.7822 22.8572 18.5712 22.8572H21.4283C22.2173 22.8572 22.8569 22.2176 22.8569 21.4286C22.8569 20.6396 22.2173 20 21.4283 20Z" fill="#F5F5FC"/>
<path d="M31.4283 20H28.5712C27.7822 20 27.1426 20.6396 27.1426 21.4286C27.1426 22.2176 27.7822 22.8572 28.5712 22.8572H31.4283C32.2173 22.8572 32.8569 22.2176 32.8569 21.4286C32.8569 20.6396 32.2172 20 31.4283 20Z" fill="#F5F5FC"/>
<path d="M11.4283 25.7148H8.57118C7.78217 25.7148 7.14258 26.3544 7.14258 27.1434C7.14258 27.9325 7.78217 28.572 8.57118 28.572H11.4283C12.2173 28.572 12.8569 27.9325 12.8569 27.1434C12.8569 26.3544 12.2173 25.7148 11.4283 25.7148Z" fill="#F5F5FC"/>
<path d="M21.4283 25.7148H18.5712C17.7822 25.7148 17.1426 26.3544 17.1426 27.1434C17.1426 27.9325 17.7822 28.572 18.5712 28.572H21.4283C22.2173 28.572 22.8569 27.9325 22.8569 27.1434C22.8569 26.3544 22.2173 25.7148 21.4283 25.7148Z" fill="#F5F5FC"/>
<path d="M31.4283 25.7148H28.5712C27.7822 25.7148 27.1426 26.3544 27.1426 27.1434C27.1426 27.9325 27.7822 28.572 28.5712 28.572H31.4283C32.2173 28.572 32.8569 27.9325 32.8569 27.1434C32.8568 26.3544 32.2172 25.7148 31.4283 25.7148Z" fill="#F5F5FC"/>
<path d="M11.4283 31.4277H8.57118C7.78217 31.4277 7.14258 32.0673 7.14258 32.8563C7.14258 33.6453 7.78217 34.2848 8.57118 34.2848H11.4283C12.2173 34.2848 12.8569 33.6453 12.8569 32.8562C12.8569 32.0672 12.2173 31.4277 11.4283 31.4277Z" fill="#F5F5FC"/>
<path d="M21.4283 31.4277H18.5712C17.7822 31.4277 17.1426 32.0673 17.1426 32.8563C17.1426 33.6453 17.7822 34.2849 18.5712 34.2849H21.4283C22.2173 34.2849 22.8569 33.6453 22.8569 32.8563C22.8569 32.0673 22.2173 31.4277 21.4283 31.4277Z" fill="#F5F5FC"/>
<path d="M31.4283 31.4277H28.5712C27.7822 31.4277 27.1426 32.0673 27.1426 32.8563C27.1426 33.6453 27.7822 34.2849 28.5712 34.2849H31.4283C32.2173 34.2849 32.8569 33.6453 32.8569 32.8563C32.8569 32.0673 32.2172 31.4277 31.4283 31.4277Z" fill="#F5F5FC"/>
</g>
<defs>
<clipPath id="clip0_3696_12409">
<rect width="40" height="40" fill="white"/>
</clipPath>
</defs>
</svg>
