<svg width="30" height="30" viewBox="0 0 30 30" fill="none" xmlns="http://www.w3.org/2000/svg">
<g clip-path="url(#clip0_4231_13029)">
<path d="M7.9077 15.978H11.1962V29.5161C11.1962 29.7834 11.4128 30 11.6801 30H17.2558C17.5231 30 17.7397 29.7834 17.7397 29.5161V16.0418H21.5201C21.7659 16.0418 21.9727 15.8573 22.0007 15.6132L22.5749 10.6291C22.5907 10.492 22.5472 10.3546 22.4555 10.2518C22.3636 10.1488 22.2322 10.0899 22.0943 10.0899H17.7399V6.96561C17.7399 6.02381 18.247 5.54623 19.2472 5.54623C19.3898 5.54623 22.0943 5.54623 22.0943 5.54623C22.3616 5.54623 22.5782 5.32955 22.5782 5.06235V0.487452C22.5782 0.220161 22.3616 0.00358065 22.0943 0.00358065H18.1706C18.1429 0.00222581 18.0815 0 17.9909 0C17.3101 0 14.9437 0.133645 13.0744 1.85332C11.0032 3.759 11.2911 6.04074 11.3599 6.43635V10.0898H7.9077C7.64041 10.0898 7.42383 10.3064 7.42383 10.5736V15.494C7.42383 15.7613 7.64041 15.978 7.9077 15.978Z" fill="current"/>
</g>
<defs>
<clipPath id="clip0_4231_13029">
<rect width="30" height="30" fill="white"/>
</clipPath>
</defs>
</svg>
