<svg width="33" height="46" viewBox="0 0 33 46" fill="none" xmlns="http://www.w3.org/2000/svg">
<path d="M23.5217 23H9.17391V28H23.5217V23ZM30.1726 11.2031L22.8567 3.54688C22.5204 3.19531 22.0645 3 21.5863 3H21.1304V13H30.6957V12.5234C30.6957 12.0313 30.5088 11.5547 30.1726 11.2031ZM18.7391 13.625V3H3.79348C2.79959 3 2 3.83594 2 4.875V41.125C2 42.1641 2.79959 43 3.79348 43H28.9022C29.8961 43 30.6957 42.1641 30.6957 41.125V15.5H20.5326C19.5462 15.5 18.7391 14.6562 18.7391 13.625ZM6.78261 8.625C6.78261 8.27969 7.05014 8 7.38043 8H13.3587C13.689 8 13.9565 8.27969 13.9565 8.625V9.875C13.9565 10.2203 13.689 10.5 13.3587 10.5H7.38043C7.05014 10.5 6.78261 10.2203 6.78261 9.875V8.625ZM6.78261 13.625C6.78261 13.2797 7.05014 13 7.38043 13H13.3587C13.689 13 13.9565 13.2797 13.9565 13.625V14.875C13.9565 15.2203 13.689 15.5 13.3587 15.5H7.38043C7.05014 15.5 6.78261 15.2203 6.78261 14.875V13.625ZM25.913 37.375C25.913 37.7203 25.6455 38 25.3152 38H19.337C19.0067 38 18.7391 37.7203 18.7391 37.375V36.125C18.7391 35.7797 19.0067 35.5 19.337 35.5H25.3152C25.6455 35.5 25.913 35.7797 25.913 36.125V37.375ZM25.913 21.75V29.25C25.913 29.9406 25.378 30.5 24.7174 30.5H7.97826C7.31766 30.5 6.78261 29.9406 6.78261 29.25V21.75C6.78261 21.0594 7.31766 20.5 7.97826 20.5H24.7174C25.378 20.5 25.913 21.0594 25.913 21.75Z" fill="white"/>
</svg>
