<svg width="34" height="44" viewBox="0 0 34 44" fill="none" xmlns="http://www.w3.org/2000/svg">
<path d="M0 38.4474C0 41.7749 2.88938 44 7.22344 44H26.9011C31.1604 44 34 41.7749 34 38.4474V5.55262C34 2.22506 31.1604 0 26.9011 0H7.22344C2.88938 0 0 2.22506 0 5.55262V38.4474ZM17.0374 5.07153C16.1407 5.07153 15.4432 4.4902 15.4432 3.78861C15.4432 3.08702 16.1407 2.52574 17.0374 2.52574C17.9092 2.52574 18.6066 3.08702 18.6066 3.78861C18.6066 4.4902 17.9092 5.07153 17.0374 5.07153ZM4.98168 36.3827V7.61731H29.0183V36.3827H4.98168ZM17.0374 41.7549C15.7421 41.7549 14.696 40.913 14.696 39.8706C14.696 38.8483 15.7421 38.0264 17.0374 38.0264C18.3077 38.0264 19.3289 38.8483 19.3289 39.8706C19.3289 40.913 18.3077 41.7549 17.0374 41.7549Z" fill="white"/>
</svg>
