<svg width="28" height="28" viewBox="0 0 28 28" fill="none" xmlns="http://www.w3.org/2000/svg">
<g clip-path="url(#clip0_3984_15207)">
<path d="M5.41305 23.7497H22.9131C24.8696 23.7497 26 22.6193 26 20.3802V8.38018C26 6.15192 24.8587 5.02148 22.587 5.02148H5.08696C3.13043 5.02148 2 6.14105 2 8.38018V20.3802C2 22.6301 3.1413 23.7497 5.41305 23.7497ZM5.34782 22.0867C4.26087 22.0867 3.66304 21.5106 3.66304 20.3802V8.38018C3.66304 7.26061 4.26087 6.68453 5.34782 6.68453H22.6522C23.7174 6.68453 24.337 7.26061 24.337 8.39106V20.391C24.337 21.5106 23.7174 22.0867 22.6522 22.0867H5.34782ZM14.0218 17.2824C14.7826 17.2824 15.5217 16.9672 16.2826 16.2171L25.1087 7.54323L23.9783 6.40192L15.3369 14.9345C14.8696 15.4019 14.4456 15.6084 14.0218 15.6084C13.587 15.6084 13.163 15.3911 12.7065 14.9345L4.02174 6.35844L2.88044 7.49974L11.7609 16.2171C12.5217 16.9672 13.25 17.2824 14.0218 17.2824ZM23.8695 22.3258L25 21.1845L17.9674 14.2389L16.837 15.3693L23.8695 22.3258ZM3.03261 21.1954L4.16304 22.3367L11.2065 15.3693L10.0652 14.2389L3.03261 21.1954Z" fill="current"/>
</g>
<defs>
<clipPath id="clip0_3984_15207">
<rect width="24" height="18.75" fill="white" transform="translate(2 5)"/>
</clipPath>
</defs>
</svg>
