<svg width="29" height="28" viewBox="0 0 29 28" fill="none" xmlns="http://www.w3.org/2000/svg">
<path d="M14.297 17.3019L15.6592 15.9396C14.6086 15.8517 13.8518 15.5089 13.3087 14.9728C11.8041 13.4874 11.8041 11.3868 13.2998 9.91907L16.2557 6.99231C17.7603 5.51575 19.8793 5.50696 21.3839 6.99231C22.8975 8.48645 22.8797 10.5782 21.3928 12.0548L19.8793 13.5402C20.1642 14.1906 20.2621 14.9816 20.1019 15.6671L22.6482 13.1622C24.8384 11.0089 24.8473 7.93274 22.6393 5.75305C20.4224 3.56458 17.3241 3.58215 15.1339 5.74426L12.0356 8.80286C9.84538 10.965 9.83648 14.0324 12.0445 16.212C12.5609 16.7306 13.2731 17.1173 14.297 17.3019ZM15.125 9.87512L13.7628 11.2374C14.8134 11.3341 15.5701 11.6681 16.1132 12.2042C17.6268 13.6896 17.6179 15.7902 16.1221 17.2667L13.1663 20.1847C11.6616 21.67 9.54267 21.67 8.04693 20.1847C6.53339 18.6906 6.54229 16.6075 8.03803 15.131L9.54267 13.6368C9.25777 12.9952 9.16874 12.2042 9.32009 11.5099L6.77377 14.0236C4.58358 16.1769 4.57468 19.2443 6.78268 21.424C8.99957 23.6124 12.0979 23.5949 14.2881 21.4415L17.3864 18.3741C19.5766 16.212 19.5855 13.1447 17.3775 10.965C16.8611 10.4552 16.1578 10.0685 15.125 9.87512Z" fill="current"/>
</svg>
