<svg width="18" height="20" viewBox="0 0 18 20" fill="none" xmlns="http://www.w3.org/2000/svg">
<path d="M8.93848 16.2598C9.3252 16.2598 9.86133 14.792 9.86133 12.4189V6.88184C11.3467 6.47754 12.4277 5.11523 12.4277 3.50684C12.4277 1.57324 10.8809 0 8.93848 0C7.00488 0 5.45801 1.57324 5.45801 3.50684C5.45801 5.10645 6.53027 6.46875 8.01562 6.87305V12.4189C8.01562 14.7832 8.56055 16.2598 8.93848 16.2598ZM7.9541 3.7002C7.32129 3.7002 6.75879 3.14648 6.75879 2.49609C6.75879 1.85449 7.32129 1.30957 7.9541 1.30957C8.61328 1.30957 9.14941 1.85449 9.14941 2.49609C9.14941 3.14648 8.61328 3.7002 7.9541 3.7002ZM8.93848 19.7227C14.5283 19.7227 17.877 17.8418 17.877 15.6797C17.877 13.3154 14.2559 11.7861 11.3643 11.6631V13.2363C13.333 13.3242 15.873 14.2295 15.873 15.5039C15.873 17.0156 12.9551 18.0615 8.93848 18.0615C4.92188 18.0615 2.0127 17.0244 2.0127 15.5039C2.0127 14.2295 4.55273 13.3242 6.5127 13.2363V11.6631C3.62109 11.7861 0 13.3154 0 15.6797C0 17.8418 3.34863 19.7227 8.93848 19.7227Z" fill="#1C1C1E"/>
</svg>
