<svg width="1934" height="380" viewBox="0 0 1934 380" fill="none" xmlns="http://www.w3.org/2000/svg">
<path d="M181.422 0.0242526V58.6245H149.233C149.233 58.6245 119.52 54.4977 119.52 82.5597V129.605H181.422L173.993 193.157H119.52V371.434H48.5395V192.332H0.668945V129.605H51.0156V75.9569C51.0156 75.9569 44.4128 46.2441 70.8241 22.3088C97.2355 -1.62645 131.9 0.0242526 131.9 0.0242526H181.422ZM353.095 130.43V162.619C334.938 138.684 309.352 123.827 281.29 123.827C225.991 123.827 181.422 172.523 181.422 251.758C181.422 330.992 225.991 379.688 281.29 379.688C309.352 379.688 335.763 364.831 353.921 340.07L353.095 371.434H421.6V130.43H353.095ZM348.969 275.693C348.969 299.628 328.335 322.738 302.749 322.738C277.163 322.738 256.529 299.628 256.529 275.693V229.473C256.529 205.538 277.163 182.428 302.749 182.428C328.335 182.428 348.969 205.538 348.969 229.473V275.693ZM982.841 373.085V340.896C1001 364.831 1026.59 379.688 1054.65 379.688C1109.95 379.688 1154.51 330.992 1154.51 251.758C1154.51 172.523 1109.95 123.827 1054.65 123.827C1026.59 123.827 1000.17 138.684 982.016 163.445L982.841 4.15103L911.035 12.4046V372.259L982.841 373.085ZM986.968 227.822C986.968 203.887 1007.6 180.777 1033.19 180.777C1058.77 180.777 1079.41 203.887 1079.41 227.822V274.042C1079.41 297.977 1058.77 321.087 1033.19 321.087C1007.6 321.087 986.968 297.977 986.968 274.042V227.822ZM576.767 321.087C576.767 321.087 521.468 324.389 521.468 252.583V248.456C521.468 177.476 576.767 179.952 576.767 179.952C613.908 179.126 627.113 192.332 627.113 192.332L644.446 140.335C614.733 118.05 524.769 114.749 484.327 151.89C449.662 184.078 449.662 236.076 449.662 250.107C448.837 263.312 448.837 316.135 484.327 348.324C524.769 385.465 614.733 382.164 644.446 359.879L627.113 307.882C627.113 308.707 613.908 321.913 576.767 321.087Z" fill="#0766FF"/>
<path d="M881.322 277.343C881.322 277.343 910.21 126.303 772.375 125.478C634.541 124.653 654.35 261.661 654.35 261.661C657.651 345.022 695.617 368.958 761.646 377.211C827.674 385.465 877.195 359.879 877.195 359.879L862.339 311.183C862.339 311.183 809.516 327.69 767.423 323.563C725.33 320.262 728.632 276.518 728.632 276.518H881.322V277.343ZM726.981 228.647C726.981 228.647 723.679 174.999 771.55 174.999C819.421 174.999 816.119 228.647 816.119 228.647H726.981ZM1297.3 127.129C1207.34 127.129 1177.62 181.602 1177.62 253.408C1177.62 330.166 1216.42 379.687 1297.3 379.687C1363.33 379.687 1416.98 335.118 1416.98 253.408C1416.98 183.253 1382.31 127.129 1297.3 127.129ZM1343.52 274.042C1343.52 297.977 1322.06 321.087 1296.48 321.087C1270.06 321.087 1249.43 297.977 1249.43 274.042V227.822C1249.43 203.887 1270.89 180.777 1296.48 180.777C1322.89 180.777 1343.52 203.887 1343.52 227.822V274.042ZM1562.24 127.129C1472.28 127.129 1442.56 181.602 1442.56 253.408C1442.56 330.166 1481.36 379.687 1562.24 379.687C1628.27 379.687 1681.92 335.118 1681.92 253.408C1681.92 183.253 1647.25 127.129 1562.24 127.129ZM1608.46 274.042C1608.46 297.977 1587 321.087 1561.41 321.087C1535 321.087 1514.37 297.977 1514.37 274.042V227.822C1514.37 203.887 1535.83 180.777 1561.41 180.777C1587.83 180.777 1608.46 203.887 1608.46 227.822V274.042ZM1933.65 372.259L1855.24 250.932L1930.35 129.605H1853.59L1780.13 238.551V2.5L1708.33 9.92821V372.259H1780.13V249.281L1859.37 372.259H1933.65Z" fill="#0766FF"/>
</svg>
