<svg width="231" height="119" viewBox="0 0 231 119" fill="none" xmlns="http://www.w3.org/2000/svg">
<g clip-path="url(#clip0_3593_12424)">
<path d="M22.2384 53.8014C21.3344 53.8379 20.4305 53.9033 19.5264 53.906C15.5604 53.9176 11.5942 53.8955 7.62816 53.9167C5.16615 53.9298 2.7044 53.9986 0.183982 54.0425C0.125431 54.0425 0.125431 53.9767 0.167127 53.9326C0.369561 53.7591 0.526739 53.6246 0.691597 53.5014C2.13135 52.4257 3.55336 51.3223 5.01736 50.2844C7.6711 48.4031 10.3272 46.5235 13.0251 44.7139C15.6019 42.9856 18.2323 41.3459 20.8408 39.6701C23.1902 38.1608 25.5334 36.6405 27.8949 35.1525C30.4121 33.5665 32.9435 32.0054 35.4762 30.4469C37.6605 29.1028 39.8505 27.7687 42.047 26.4468C43.9264 25.3158 45.8243 24.2187 47.7038 23.0878C49.9004 21.7661 52.0592 20.3719 54.2833 19.1044C56.9034 17.6111 59.5753 16.2184 62.2261 14.7848C65.184 13.1851 68.1268 11.5531 71.1065 9.99964C74.6282 8.16351 78.1765 6.38323 81.7247 4.6042C83.7516 3.58798 85.8036 2.62733 87.84 1.63198C88.8404 1.14296 89.8312 0.631931 90.8264 0.130861C91.0405 0.130859 91.2547 0.130859 91.5224 0.130859C92.9427 0.610757 94.3008 1.12054 95.6783 1.56329C97.5691 2.17101 99.466 2.76199 101.376 3.29893C104.537 4.18758 107.7 5.07019 110.882 5.86913C112.4 6.25015 113.963 6.42568 115.504 6.70757C117.223 7.02211 118.938 7.35956 120.657 7.67237C122.078 7.93093 123.503 8.16741 124.926 8.41502C126.609 8.70792 128.289 9.01703 129.975 9.29064C131.043 9.46389 132.118 9.58594 133.19 9.72956C134.464 9.90032 135.738 10.0781 137.014 10.2366C137.887 10.3451 138.766 10.4147 139.64 10.5212C140.977 10.6842 142.312 10.8721 143.649 11.0337C144.524 11.1394 145.4 11.2262 146.278 11.3058C148.259 11.4858 150.242 11.6587 152.225 11.8288C152.86 11.8833 153.496 11.9288 154.133 11.9633C155.842 12.056 157.552 12.1474 159.261 12.2264C161.325 12.3216 163.388 12.4094 165.452 12.4897C167.869 12.5838 170.286 12.6724 172.704 12.752C174.36 12.8066 176.016 12.8403 177.672 12.8861C179.183 12.9278 180.694 12.9606 182.204 13.0223C182.986 13.0542 183.765 13.1404 184.575 13.2043C184.481 13.2698 184.39 13.3649 184.281 13.4028C180.469 14.7319 176.655 16.0544 172.841 17.3805C167.553 19.2198 162.262 21.053 156.977 22.9047C153.283 24.1991 149.552 25.3958 145.921 26.8652C142.494 28.252 139.035 29.5739 135.758 31.3651C133.064 32.8375 130.285 34.1384 127.538 35.5026C125.05 36.7385 122.554 37.9572 120.061 39.1836C117.569 40.4099 115.078 41.6406 112.583 42.8614C109.612 44.3152 106.635 45.7569 103.664 47.2106C101.261 48.3863 98.861 49.5695 96.4615 50.7537C94.3363 51.8024 92.2042 52.8364 90.0938 53.9175C89.0019 54.4769 87.9529 55.129 86.8784 55.7269C86.7229 55.8134 86.5312 55.8778 86.3589 55.8717C85.8281 55.8528 85.2991 55.7664 84.7686 55.7566C81.8843 55.7028 78.9992 55.6856 76.1154 55.6123C74.384 55.5683 72.6544 55.4466 70.9242 55.3568C69.277 55.2713 67.6303 55.1728 65.9828 55.0973C64.7018 55.0387 63.42 54.9999 62.1382 54.9645C60.3156 54.9142 58.4927 54.8747 56.6699 54.8316C54.7847 54.787 52.8994 54.7439 51.0142 54.6998C49.1497 54.6563 47.285 54.6241 45.421 54.5654C43.0241 54.49 40.6278 54.3945 38.2313 54.305C35.9388 54.2193 33.6462 54.137 31.3541 54.0402C29.5611 53.9644 27.7689 53.8688 25.861 53.7825C24.5766 53.789 23.4075 53.7952 22.2384 53.8014Z" fill="#225157"/>
<path d="M99.002 119.13C98.9048 118.858 98.827 118.587 98.8268 118.315C98.8204 109.441 98.8215 100.568 98.8215 91.6939C98.8215 87.6307 98.8215 83.5676 98.8215 79.4475C94.3754 79.4475 90.0782 79.4475 85.7715 79.4475C85.7715 75.05 85.7715 70.7101 85.7715 66.3203C94.4663 66.3203 103.094 66.3203 111.768 66.3203C111.768 83.8396 111.768 101.397 111.768 118.973C111.594 118.991 111.412 119.009 111.21 119.079C110.976 119.13 110.761 119.13 110.471 119.077C106.994 119.016 103.592 119.007 100.19 119.005C100.109 119.005 100.027 119.087 99.9459 119.13C99.6498 119.13 99.3536 119.13 99.002 119.13Z" fill="#FF0000"/>
<path d="M144.226 119.131C143.965 119.043 143.76 118.885 143.55 118.879C141.875 118.829 140.364 118.291 139.231 116.986C138.119 115.705 137.356 114.234 137.409 112.375C137.478 109.966 137.436 107.554 137.424 105.144C137.388 97.5714 137.343 89.9992 137.301 82.4269C137.3 82.1908 137.301 81.9546 137.301 81.6875C141.81 81.6875 146.274 81.6875 150.845 81.6875C150.845 89.6423 150.845 97.5774 150.845 105.639C160.423 105.639 169.894 105.639 179.547 105.639C178.801 106.763 178.18 107.72 177.539 108.662C176.336 110.432 175.114 112.189 173.914 113.96C172.856 115.521 171.821 117.099 170.758 118.656C170.673 118.781 170.452 118.846 170.289 118.859C169.916 118.888 169.54 118.857 169.165 118.87C167.844 118.918 166.523 118.975 165.182 119.08C164.947 119.131 164.733 119.131 164.443 119.078C161.798 119.017 159.229 119.007 156.659 119.006C156.578 119.006 156.497 119.087 156.416 119.131C153.79 119.131 151.163 119.131 148.456 119.078C147.408 119.017 146.44 119.001 145.473 119.006C145.289 119.007 145.106 119.087 144.922 119.131C144.708 119.131 144.494 119.131 144.226 119.131Z" fill="#FF0000"/>
<path d="M65.0212 119.131C64.584 119.043 64.2025 118.88 63.8205 118.879C57.699 118.863 51.5774 118.86 45.4559 118.872C43.1998 118.876 41.5191 117.779 40.2557 115.903C39.6223 114.962 39.3251 113.913 39.3373 112.716C39.3813 108.377 39.339 104.038 39.3584 99.6986C39.3849 93.7695 39.438 87.8407 39.4795 81.9117C39.4803 81.8061 39.4796 81.7005 39.4796 81.6016C43.8498 81.6016 48.1822 81.6016 52.5697 81.6016C52.5697 89.6208 52.5697 97.563 52.5697 105.558C62.0853 105.558 71.5464 105.558 81.1002 105.558C80.5438 106.449 80.0519 107.27 79.529 108.069C78.2648 109.998 76.9815 111.914 75.7148 113.842C74.6568 115.453 73.6259 117.083 72.5426 118.674C72.3985 118.886 72.0167 118.919 71.7285 119.083C71.4979 119.131 71.2837 119.131 70.9936 119.078C69.3477 119.017 67.7778 119.006 66.2079 119.005C66.127 119.005 66.0461 119.087 65.9652 119.131C65.669 119.131 65.3729 119.131 65.0212 119.131Z" fill="#FF0000"/>
<path d="M231.125 66.4858C230.896 66.7542 230.619 66.9381 230.445 67.198C228.954 69.4241 227.488 71.6691 226 73.8983C224.826 75.6585 223.634 77.4061 222.442 79.153C222.362 79.2696 222.213 79.4094 222.095 79.41C219.002 79.424 215.908 79.4211 212.787 79.4211C212.787 74.9795 212.787 70.5908 212.787 66.1406C218.873 66.1406 224.941 66.1406 231.066 66.1406C231.125 66.2392 231.125 66.3379 231.125 66.4858Z" fill="#FF0000"/>
<path d="M108.023 47.4342C110.732 46.0681 113.4 44.7272 116.07 43.3915C118.264 42.2941 120.46 41.2027 122.656 40.109C124.943 38.9697 127.226 37.8235 129.518 36.6942C131.24 35.8455 132.972 35.0202 134.699 34.1816C135.165 33.9551 135.526 33.9741 135.814 34.5156C136.666 36.1137 137.549 37.6929 138.421 39.2792C139.606 41.4358 140.793 43.5913 141.975 45.7492C142.37 46.4688 142.848 47.1585 143.114 47.9284C143.316 48.5118 143.275 49.2013 143.267 49.8424C143.265 49.9961 142.984 50.1985 142.793 50.2883C141.041 51.1119 139.284 51.9238 137.522 52.7228C135.631 53.5803 133.732 54.4204 131.837 55.2677C129.608 56.2644 127.375 57.2523 125.15 58.2599C123.201 59.1421 121.262 60.0466 119.318 60.9406C118.06 61.5194 116.801 62.0986 115.541 62.6717C115.45 62.7128 115.34 62.7161 115.239 62.7192C113.708 62.7654 112.176 62.8452 110.645 62.8466C99.132 62.8573 87.6192 62.8353 76.1065 62.8571C64.0408 62.8799 51.9751 62.9385 39.9095 62.9901C39.4463 62.9921 38.9834 63.0847 38.4492 63.1428C38.9438 60.9012 39.4182 58.751 39.8776 56.6686C41.3059 56.6686 42.729 56.6686 44.1521 56.6688C44.2353 56.6688 44.3186 56.6709 44.4018 56.6723C46.9117 56.7161 49.4217 56.7537 51.9315 56.8062C53.4007 56.8369 54.8695 56.8906 56.3384 56.9356C57.7241 56.9782 59.1098 57.0242 60.4955 57.0664C61.9852 57.1118 63.4751 57.1533 64.9648 57.1987C66.3506 57.2409 67.7362 57.2867 69.1219 57.3296C70.57 57.3743 72.0182 57.4168 73.4663 57.4615C74.8521 57.5044 76.2377 57.5494 77.6234 57.5926C79.0507 57.6371 80.4785 57.6679 81.9053 57.7276C83.4889 57.7939 85.0714 57.9292 86.6549 57.9385C87.0811 57.941 87.5179 57.6139 87.9351 57.4055C90.6976 56.0257 93.4549 54.6345 96.2161 53.2519C98.3911 52.1628 100.566 51.0729 102.747 49.9982C104.487 49.141 106.236 48.3063 108.023 47.4342Z" fill="#225157"/>
<path d="M203.39 66.1406C205.698 66.1406 207.944 66.1406 210.225 66.1406C210.225 83.7137 210.225 101.253 210.225 118.795C205.897 118.795 201.565 118.795 197.144 118.795C197.144 118.47 197.144 118.218 197.144 117.966C197.144 107.01 197.149 96.0543 197.138 85.0983C197.136 83.3771 197.05 81.6563 197.026 79.9349C197.02 79.5195 196.86 79.4124 196.498 79.4159C195.104 79.4293 193.709 79.4213 192.314 79.4213C189.452 79.4213 186.591 79.4213 183.69 79.4213C183.69 74.9151 183.69 70.5675 183.69 66.1406C190.23 66.1406 196.779 66.1406 203.39 66.1406Z" fill="#FF0000"/>
<path d="M22.2375 53.8611C23.4066 53.7947 24.5757 53.7886 25.8027 53.7916C25.8606 58.1953 25.8606 62.5897 25.8606 66.9352C28.184 67.6515 28.1826 68.8835 28.0953 70.5057C28.0421 71.4967 27.1858 72.2142 25.8607 72.3886C25.8607 73.578 25.8477 74.793 25.8733 76.0072C25.8777 76.2119 25.9984 76.4899 26.1521 76.6014C26.68 76.9845 26.8621 77.5063 26.8609 78.143C26.8582 79.5674 26.86 80.9919 26.86 82.4164C26.86 82.6294 26.86 82.8423 26.86 83.0743C28.1861 83.122 29.2965 83.5468 30.1029 84.6176C30.6693 85.3697 31.0961 86.2256 31.0977 87.1968C31.114 97.3653 31.1077 107.534 31.1077 117.702C31.1077 117.85 31.1077 117.998 31.1077 118.177C26.3957 118.177 21.7394 118.177 16.9904 118.177C16.9904 117.955 16.9904 117.724 16.9904 117.494C16.9904 112.826 16.9741 108.158 16.995 103.49C17.0151 99.0065 17.0677 94.5227 17.1197 90.0391C17.132 88.9736 17.0793 87.8847 17.2682 86.8494C17.5619 85.2398 18.5987 84.1492 20.0005 83.5162C21.2154 82.9676 21.2381 83.0233 21.2381 81.6143C21.2381 80.4309 21.2263 79.2473 21.2432 78.0642C21.2514 77.492 21.3879 76.9828 21.9151 76.6423C22.0869 76.5313 22.227 76.2034 22.2218 75.9789C22.1952 74.8281 22.1165 73.6787 22.0557 72.5229C20.8363 72.2767 20.175 71.2371 20.1104 70.2375C19.996 68.4667 20.3982 67.7208 22.2375 67.1169C22.2375 62.7268 22.2375 58.324 22.2375 53.8611Z" fill="#FFC600"/>
<path d="M165.41 79.2882C156.026 79.2882 146.703 79.2882 137.333 79.2882C137.322 79.077 137.302 78.8889 137.302 78.7007C137.3 76.5538 137.354 74.405 137.283 72.2608C137.23 70.6725 137.963 69.4727 138.807 68.3219C139.976 66.7274 141.556 66.1157 143.475 66.1189C149.647 66.1292 155.82 66.0342 161.992 66.016C164.48 66.0087 166.968 66.1124 169.457 66.1296C170.307 66.1354 170.819 66.5828 171.285 67.2697C173.321 70.272 175.39 73.2491 177.44 76.2401C178.103 77.2062 178.746 78.1869 179.483 79.2882C174.754 79.2882 170.114 79.2882 165.41 79.2882Z" fill="#FF0000"/>
<path d="M39.3539 76.2451C39.3539 74.7353 39.4339 73.2828 39.3317 71.8446C39.2273 70.376 39.8563 69.2759 40.6768 68.248C41.4079 67.332 42.3033 66.6259 43.4505 66.3659C43.6872 66.3123 43.9328 66.2757 44.1743 66.2756C53.2723 66.2711 62.3703 66.2797 71.4682 66.2539C72.0707 66.2522 72.4421 66.4436 72.7843 66.9326C75.3949 70.6635 78.0246 74.3796 80.6377 78.1087C80.8912 78.4705 81.0723 78.8887 81.3419 79.3811C67.313 79.3811 53.4389 79.3811 39.5386 79.3811C39.4779 78.3718 39.4159 77.3403 39.3539 76.2451Z" fill="#FF0000"/>
<path d="M120.31 66.2715C124.506 66.2715 128.64 66.2715 132.908 66.2715C132.076 67.5043 131.321 68.6267 130.563 69.7467C128.435 72.8898 126.309 76.0341 124.168 79.1671C124.073 79.3059 123.839 79.4083 123.668 79.4099C121.857 79.4272 120.045 79.4446 118.234 79.4125C116.954 79.3898 115.676 79.2911 114.354 79.2241C114.354 74.9607 114.354 70.6567 114.354 66.2715C116.31 66.2715 118.279 66.2715 120.31 66.2715Z" fill="#FF0000"/>
</g>
<defs>
<clipPath id="clip0_3593_12424">
<rect width="231" height="119" fill="white"/>
</clipPath>
</defs>
</svg>
