<svg width="24" height="24" viewBox="0 0 24 24" fill="current" xmlns="http://www.w3.org/2000/svg">
<path d="M3.6971 23H20.5729C22.8265 23 24 21.8113 24 19.5399V3.46008C24 1.18874 22.8265 0 20.5729 0H8.14193C5.88836 0 4.72523 1.18874 4.72523 3.46008V20.8879C4.72523 21.9705 4.4656 22.5755 3.6971 23ZM9.14929 6.63359C8.74427 6.63359 8.4431 6.31518 8.4431 5.91186C8.4431 5.51915 8.73388 5.21135 9.14929 5.21135H19.5863C19.981 5.21135 20.2821 5.51915 20.2821 5.91186C20.2821 6.31518 19.981 6.63359 19.5863 6.63359H9.14929ZM0 10.5395V19.9114C0 20.7923 0.643877 21.27 1.35006 21.27C2.06664 21.27 2.70013 20.7923 2.70013 19.9114V8.1832H2.28473C0.976201 8.1832 0 9.02169 0 10.5395ZM9.14929 10.2953C8.73388 10.2953 8.4431 9.98754 8.4431 9.59483C8.4431 9.19151 8.74427 8.8731 9.14929 8.8731H19.5863C19.981 8.8731 20.2821 9.19151 20.2821 9.59483C20.2821 9.98754 19.981 10.2953 19.5863 10.2953H9.14929ZM9.67893 17.7037C8.90004 17.7037 8.42233 17.2261 8.42233 16.4301V13.8191C8.42233 13.0337 8.90004 12.5455 9.67893 12.5455H12.1506C12.9399 12.5455 13.4072 13.0337 13.4072 13.8191V16.4301C13.4072 17.2261 12.9399 17.7037 12.1506 17.7037H9.67893ZM15.4531 13.9677C15.048 13.9677 14.7469 13.6599 14.7469 13.2672C14.7469 12.8639 15.0376 12.5455 15.4531 12.5455H19.5863C19.981 12.5455 20.2821 12.8639 20.2821 13.2672C20.2821 13.6599 19.981 13.9677 19.5863 13.9677H15.4531ZM15.4531 17.6613C15.0376 17.6613 14.7469 17.3535 14.7469 16.9608C14.7469 16.5575 15.048 16.239 15.4531 16.239H19.5863C19.981 16.239 20.2821 16.5575 20.2821 16.9608C20.2821 17.3535 19.981 17.6613 19.5863 17.6613H15.4531Z" fill="current"/>
</svg>
